<?xml version="1.0" standalone="no"?>
<!DOCTYPE svg PUBLIC "-//W3C//DTD SVG 20010904//EN"
 "http://www.w3.org/TR/2001/REC-SVG-20010904/DTD/svg10.dtd">
<svg version="1.0" xmlns="http://www.w3.org/2000/svg"
 width="359.000000pt" height="359.000000pt" viewBox="0 0 359.000000 359.000000"
 preserveAspectRatio="xMidYMid meet">
<metadata>
Created by potrace 1.14, written by Peter Selinger 2001-2017
</metadata>
<g transform="translate(0.000000,359.000000) scale(0.100000,-0.100000)"
fill="#000000" stroke="none">
<path d="M2077 2799 c-24 -24 -73 -93 -110 -154 -131 -218 -275 -351 -597
-551 -117 -72 -269 -151 -308 -159 -9 -2 -30 -8 -45 -14 -32 -12 -97 -14 -113
-3 -28 18 -59 109 -69 202 -12 112 -14 126 -25 155 -26 70 -101 112 -176 100
-83 -13 -163 -65 -317 -209 -94 -88 -116 -106 -129 -106 -3 0 -17 22 -30 48
-26 52 -26 52 -105 18 -24 -10 -43 -22 -43 -27 0 -22 53 -112 81 -139 53 -50
135 -52 198 -6 18 13 75 64 128 113 169 156 247 199 263 143 4 -14 13 -69 19
-122 17 -150 66 -259 133 -293 104 -53 262 -18 492 108 80 44 279 172 358 231
l28 20 32 -30 c198 -181 364 -411 431 -600 26 -72 44 -164 33 -164 -7 0 -196
28 -236 35 -24 4 -61 10 -137 20 -21 3 -63 10 -93 15 -30 5 -77 12 -105 16
-27 3 -57 8 -66 9 -80 15 -231 36 -235 32 -3 -2 -7 -24 -10 -48 -3 -24 -14
-63 -25 -86 -21 -44 -18 -42 -113 -59 -10 -2 -72 -6 -137 -10 l-117 -6 35 93
c45 120 67 227 58 285 -3 24 -9 44 -12 44 -6 0 -116 -32 -121 -36 -2 -1 -5
-28 -8 -59 -4 -59 -45 -194 -86 -280 l-23 -50 -73 -2 c-40 0 -74 -2 -76 -4 -1
-2 -26 -46 -54 -97 -66 -118 -120 -192 -138 -192 -8 0 -33 9 -55 21 -23 11
-42 19 -43 17 -1 -2 -16 -28 -33 -59 l-31 -55 21 -14 c107 -68 187 -69 254 -3
31 30 91 116 137 196 21 37 33 47 54 48 15 1 70 2 122 4 114 4 288 14 350 21
105 11 162 42 204 111 14 24 26 49 26 54 0 10 50 7 124 -7 10 -2 82 -13 160
-24 153 -23 188 -28 226 -35 14 -2 45 -7 70 -10 25 -3 70 -10 100 -15 30 -5
73 -12 95 -15 22 -3 67 -10 100 -15 l60 -10 125 -129 125 -130 52 0 c66 -1
170 -22 248 -52 57 -21 126 -76 137 -109 3 -11 20 -14 68 -12 35 1 65 4 67 6
11 11 -13 83 -41 119 -66 88 -212 155 -384 178 l-87 12 -125 128 c-110 114
-129 129 -158 129 -38 0 -43 10 -62 110 -41 230 -213 509 -456 743 l-62 59 32
32 c97 99 169 189 229 289 38 62 74 118 81 125 25 26 349 -75 531 -165 96 -47
211 -140 426 -341 74 -69 77 -75 64 -95 -42 -67 -71 -236 -46 -276 9 -14 22
-12 96 15 40 15 40 15 40 67 0 29 6 66 13 83 l13 32 72 -72 72 -72 0 -240 0
-239 -109 -3 c-92 -2 -113 -6 -139 -24 -42 -30 -68 -97 -74 -188 l-5 -77 33 3
c19 1 50 3 70 3 l36 1 6 66 c2 36 7 67 9 70 3 2 74 5 159 7 l154 2 0 338 0
338 -102 102 -103 103 33 34 c18 19 48 47 67 62 31 25 34 31 35 87 1 34 -2 66
-6 72 -11 19 -113 -39 -171 -97 -29 -30 -55 -54 -58 -54 -3 0 -23 17 -45 38
-39 37 -131 121 -211 192 -77 70 -172 140 -235 174 -151 80 -483 192 -607 203
l-62 6 -43 -44z"/>
<path d="M1457 1179 l-46 -52 133 -131 c74 -72 146 -150 160 -173 l26 -43 68
3 c65 2 67 3 64 27 -9 64 -141 225 -313 379 l-47 41 -45 -51z"/>
<path d="M2246 1131 c-4 -5 -9 -36 -12 -68 -4 -32 -7 -59 -8 -60 -1 -1 -27 11
-58 26 l-56 27 -43 -54 c-50 -64 -51 -63 68 -112 136 -57 197 -55 221 7 6 15
12 65 15 109 l4 82 -54 26 c-58 28 -69 31 -77 17z"/>
</g>
</svg>
